<svg xmlns="http://www.w3.org/2000/svg" viewBox="0 0 512 512" style="height: 512px; width: 512px;"><path d="M469.3 42.7c-11.8 0-23.1 4.7-31.4 13L256 237.6 74.1 55.7c-8.3-8.3-19.6-13-31.4-13S19.6 47.4 11.3 55.7c-8.3 8.3-13 19.6-13 31.4s4.7 23.1 13 31.4l181.9 181.9-181.9 181.9c-8.3 8.3-13 19.6-13 31.4s4.7 23.1 13 31.4c8.3 8.3 19.6 13 31.4 13s23.1-4.7 31.4-13L256 274.4l181.9 181.9c8.3 8.3 19.6 13 31.4 13s23.1-4.7 31.4-13c8.3-8.3 13-19.6 13-31.4s-4.7-23.1-13-31.4L318.6 211.8l181.9-181.9c8.3-8.3 13-19.6 13-31.4s-4.7-23.1-13-31.4c-8.1-8.3-19.4-13-31.2-13z" fill="#3b82f6"/></svg>